# AST/ASF file generated using VICON BodyLanguage
# -----------------------------------------------
:version 1.10
:name VICON
:units
  mass 1.0
  length 0.45
  angle deg
:documentation
   .ast/.asf automatically generated from VICON data using
   VICON BodyBuilder and BodyLanguage model FoxedUp or BRILLIANT.MOD
:root
   order TX TY TZ RX RY RZ
   axis XYZ
   position 0 0 0  
   orientation 0 0 0 
:bonedata
  begin
     id 1 
     name lhipjoint
     direction 0.64773 -0.699417 0.302095 
     length 2.48597 
     axis 0 0 0  XYZ
  end
  begin
     id 2 
     name lfemur
     direction 0.34202 -0.939693 0  
     length 6.71947  
     axis 0 0 20  XYZ
    dof rx ry rz
    limits (-160.0 20.0)
           (-70.0 70.0)
           (-60.0 70.0)
  end
  begin
     id 3 
     name ltibia
     direction 0.34202 -0.939693 0   
     length 8.08777   
     axis 0 0 20   XYZ
    dof rx
    limits (-10.0 170.0)
  end
  begin
     id 4 
     name lfoot
     direction 0.0808503 -0.222134 0.971658   
     length 2.08264   
     axis -90 7.62852e-016 20   XYZ
    dof rx rz
    limits (-45.0 90.0)
           (-70.0 20.0)
  end
  begin
     id 5 
     name ltoes
     direction 1.53502e-011 -4.22007e-011 1   
     length 1.04662   
     axis -90 7.62852e-016 20   XYZ
    dof rx
    limits (-90.0 20.0)
  end
  begin
     id 6 
     name rhipjoint
     direction -0.610924 -0.726792 0.313919   
     length 2.39233  
     axis 0 0 0  XYZ 
  end
  begin
     id 7 
     name rfemur
     direction -0.34202 -0.939693 0   
     length 6.96955   
     axis 0 0 -20   XYZ
    dof rx ry rz
    limits (-160.0 20.0)
           (-70.0 70.0)
           (-70.0 60.0)
  end
  begin
     id 8 
     name rtibia
     direction -0.34202 -0.939693 0   
     length 8.19584   
     axis 0 0 -20   XYZ
    dof rx
    limits (-10.0 170.0)
 end
 begin
     id 9 
     name rfoot
     direction -0.077777 -0.213691 0.9738   
     length 2.07539  
     axis -90 -7.62852e-016 -20   XYZ
    dof rx rz
    limits (-45.0 90.0)
           (-20.0 70.0)
  end
  begin
     id 10 
     name rtoes
     direction -1.53558e-011 -4.22006e-011 1   
     length 1.04381   
     axis -90 -7.62852e-016 -20   XYZ
    dof rx
    limits (-90.0 20.0)
  end
  begin
     id 11 
     name lowerback
     direction -0.00971646 0.996074 0.0879841   
     length 1.67643   
     axis 0 0 0   XYZ
    dof rx ry rz
    limits (-20.0 45.0)
           (-30.0 30.0)
           (-30.0 30.0)
  end
  begin
     id 12 
     name upperback
     direction 0.0127391 0.991676 0.128127   
     length 1.63741   
     axis 0 0 0   XYZ
    dof rx ry rz
    limits (-20.0 45.0)
           (-30.0 30.0)
           (-30.0 30.0)
  end
  begin
     id 13 
     name thorax
     direction 0.0167583 0.996049 0.0872067   
     length 1.65931   
     axis 0 0 0   XYZ
    dof rx ry rz
    limits (-20.0 45.0)
           (-30.0 30.0)
           (-30.0 30.0)
  end
  begin
     id 14 
     name lowerneck
     direction -0.0317829 0.998312 0.0486079   
     length 1.79021   
     axis 0 0 0   XYZ
    dof rx ry rz
    limits (-20.0 45.0)
           (-30.0 30.0)
           (-30.0 30.0)
  end
  begin
     id 15 
     name upperneck
     direction 0.0896851 0.972452 -0.215159   
     length 1.78797   
     axis 0 0 0   XYZ
    dof rx ry rz
    limits (-20.0 45.0)
           (-30.0 30.0)
           (-30.0 30.0)
  end
  begin
     id 16
     name head
     direction 0.0310949 0.996503 -0.0775582  
     length 1.81549  
     axis 0 0 0   XYZ
    dof rx ry rz
    limits (-20.0 45.0)
           (-30.0 30.0)
           (-30.0 30.0)
  end
  begin
     id 17 
     name lclavicle
     direction 0.853638 0.502051 -0.138733  
     length 3.31627  
     axis 0 0 0   XYZ
    dof ry rz
    limits (-20.0 10.0)
           (0.0 20.0)
  end
  begin
     id 18 
     name lhumerus
     direction 1 -4.48962e-011 -1.41788e-018   
     length 5.54893   
     axis 180 -30 -90   XYZ
    dof rx ry rz
    limits (-60.0 90.0)
           (-90.0 90.0)
           (-90.0 90.0)
  end
  begin
     id 19
     name lradius
     direction 1 -4.48962e-011 -4.95754e-027   
     length 3.02898   
     axis 180 -30 -90   XYZ
    dof rx
    limits (-10.0 170.0)
  end
  begin
     id 20
     name lwrist
     direction 1 -4.48952e-011 -1.03764e-026   
     length 1.51449   
     axis 9.09556e-015 90 90   XYZ
    dof ry
    limits (-180.0 0.0)
 end
  begin
     id 21 
     name lhand
     direction 1 -4.4902e-011 -2.07528e-026   
     length 0.640951   
     axis 1.3242e-014 90 90   XYZ
    dof rx rz
    limits (-90.0 90.0)
           (-45.0 45.0)
  end
  begin
     id 22 
     name lfingers
     direction 1 -4.49014e-011 -4.15056e-026   
     length 0.516751   
     axis 2.64841e-014 90 90   XYZ
    dof rx
    limits (0.0 90.0)
  end
  begin
     id 23
     name lthumb
     direction 0.707107 -6.35008e-011 0.707107   
     length 0.741954   
     axis -90 45 2.85299e-015   XYZ
    dof rx rz
    limits (-45.0 45.0)
           (-45.0 45.0)
  end
  begin
     id 24 
     name rclavicle
     direction -0.888531 0.455324 -0.0565039   
     length 3.20126  
     axis 0 0 0   XYZ 
    dof ry rz
    limits (-10.0 20.0)
           (-20.0 0.0)
  end
  begin
     id 25 
     name rhumerus
     direction -1 -4.48946e-011 -8.98298e-028  
     length 5.3519   
     axis 180 30 90   XYZ
    dof rx ry rz
    limits (-90.0 60.0)
           (-90.0 90.0)
           (-90.0 90.0)
  end
  begin
     id 26 
     name rradius
     direction -1 -4.4899e-011 -3.18779e-027   
     length 3.02531   
     axis 180 30 90   XYZ
    dof rx
    limits (-10.0 170.0)
  end
  begin
     id 27 
     name rwrist
     direction -1 -4.4897e-011 -1.03764e-026   
     length 1.51266   
     axis 9.09556e-015 -90 -90   XYZ
    dof ry
    limits (-180.0 0.0)
  end
  begin
     id 28
     name rhand
     direction -1 -4.48941e-011 -2.07528e-026   
     length 0.78389   
     axis 1.3242e-014 -90 -90   XYZ
    dof rx rz
    limits (-90.0 90.0)
           (-45.0 45.0)
  end
  begin
     id 29
     name rfingers
     direction -1 -4.49012e-011 -4.15056e-026   
     length 0.631992   
     axis 2.64841e-014 -90 -90   XYZ
    dof rx
    limits (0.0 90.0)
  end
  begin
     id 30
     name rthumb
     direction -0.707107 -6.3496e-011 0.707107   
     length 0.907418   
     axis -90 -45 -2.85299e-015   XYZ
    dof rx rz
    limits (-45.0 45.0)
           (-45.0 45.0)
  end
:hierarchy
  begin
    root lhipjoint rhipjoint lowerback
    lhipjoint lfemur
    lfemur ltibia
    ltibia lfoot
    lfoot ltoes
    rhipjoint rfemur
    rfemur rtibia
    rtibia rfoot
    rfoot rtoes
    lowerback upperback
    upperback thorax
    thorax lowerneck lclavicle rclavicle
    lowerneck upperneck
    upperneck head
    lclavicle lhumerus
    lhumerus lradius
    lradius lwrist
    lwrist lhand lthumb
    lhand lfingers
    rclavicle rhumerus
    rhumerus rradius
    rradius rwrist
    rwrist rhand rthumb
    rhand rfingers
  end

#!OML:ASF E:\Style3\Style3.ASF
:FULLY-SPECIFIED
:DEGREES
1272
root -0.333103 17.4753 2.93239 -523.667 60.3329 -537.924
lowerback 7.14683 0.498792 3.07743
upperback -1.84348 1.13578 2.31529
thorax -5.92941 0.513911 0.546223
lowerneck -6.01289 9.08755 5.50455
upperneck 12.8014 12.1469 -2.23198
head 5.31626 6.10578 -0.752732
rclavicle -2.54444e-014 4.77083e-015
rhumerus -1.64517 19.6464 -91.1667
rradius 124.185
rwrist 20.9242
rhand 45.1045 1.97268
rfingers 7.12502
rthumb 66.4664 -2.55659
lclavicle -2.54444e-014 4.77083e-015
lhumerus -1.71925 -5.58546 89.7846
lradius 138.44
lwrist -0.176147
lhand 12.4066 33.6632
lfingers 7.12502
lthumb 37.4052 59.6218
rfemur -24.4143 0.744037 20.4516
rtibia 31.5868
rfoot -19.2915 -21.4694
rtoes -17.2057
lfemur -34.3593 -14.6514 -0.488576
ltibia 22.2433
lfoot 4.4222 11.6182
ltoes -42.4263
1273
root -0.327685 17.4816 2.95256 -523.776 60.2622 -537.954
lowerback 7.02017 0.483628 3.09302
upperback -1.7973 1.11196 2.35079
thorax -5.80926 0.504356 0.578444
lowerneck -6.06195 9.1182 5.47947
upperneck 12.9163 12.1937 -2.22201
head 5.35994 6.1281 -0.736716
rclavicle 6.10269e-014 6.04305e-014
rhumerus -1.68508 19.8258 -91.1575
rradius 124.285
rwrist 19.815
rhand 44.0571 2.25099
rfingers 7.12502
rthumb 65.6607 -3.7861
lclavicle 6.10269e-014 6.04305e-014
lhumerus -1.78036 -5.74314 89.7993
lradius 138.41
lwrist -0.44065
lhand 12.7175 33.9723
lfingers 7.12502
lthumb 37.699 59.8528
rfemur -24.2613 0.84338 20.5142
rtibia 31.4762
rfoot -19.3273 -21.5789
rtoes -16.7306
lfemur -34.3756 -14.6406 -0.439374
ltibia 22.3069
lfoot 4.52761 11.5143
ltoes -41.8428
1274
root -0.322997 17.4897 2.97276 -524.111 60.2139 -538.21
lowerback 7.06244 0.478641 2.98588
upperback -1.8109 1.09728 2.35019
thorax -5.84955 0.500104 0.639278
lowerneck -6.09036 9.13681 5.49064
upperneck 13.044 12.2224 -2.20772
head 5.40549 6.14411 -0.726784
rclavicle -5.58585e-014 -9.54166e-015
rhumerus -1.8246 20.034 -91.2065
rradius 124.444
rwrist 18.8175
rhand 43.3657 2.55748
rfingers 7.12502
rthumb 65.1195 -4.41916
lclavicle -5.58585e-014 -9.54166e-015
lhumerus -1.94309 -5.85762 89.8225
lradius 138.384
lwrist -0.660294
lhand 13.0618 34.195
lfingers 7.12502
lthumb 38.0242 59.9876
rfemur -24.0768 0.894786 20.4451
rtibia 31.3636
rfoot -19.4469 -21.6151
rtoes -16.1344
lfemur -34.3082 -14.6523 -0.535878
ltibia 22.3426
lfoot 4.76586 11.2507
ltoes -41.9487
1275
root -0.319079 17.4924 2.98965 -524.343 60.1874 -538.388
lowerback 7.11031 0.495011 3.03004
upperback -1.87092 1.12435 2.30273
thorax -5.93808 0.509312 0.561416
lowerneck -5.83805 9.10873 5.56694
upperneck 12.8903 12.2019 -2.32669
head 5.32671 6.13434 -0.792256
rclavicle 1.07344e-014 -3.81667e-014
rhumerus -1.99519 20.1839 -91.2331
rradius 124.653
rwrist 17.9327
rhand 42.4049 2.82037
rfingers 7.12502
rthumb 64.3563 -5.39309
lclavicle 1.07344e-014 -3.81667e-014
lhumerus -2.1169 -5.88674 89.8451
lradius 138.348
lwrist -0.727996
lhand 13.8962 34.3537
lfingers 7.12502
lthumb 38.8117 59.9274
rfemur -23.9513 1.06381 20.3735
rtibia 31.2058
rfoot -19.3013 -21.8041
rtoes -16.0832
lfemur -34.3189 -14.5482 -0.652595
ltibia 22.4492
lfoot 5.15831 10.85
ltoes -42.9651
1276
root -0.316258 17.4953 3.00639 -524.551 60.1603 -538.544
lowerback 7.09844 0.497116 3.0225
upperback -1.8611 1.12448 2.29203
thorax -5.92081 0.50951 0.554576
lowerneck -5.63483 9.1102 5.67456
upperneck 12.6256 12.2177 -2.53156
head 5.23054 6.1362 -0.885722
rclavicle -2.96189e-014 2.78299e-014
rhumerus -1.89266 20.4243 -91.1431
rradius 124.807
rwrist 17.1004
rhand 41.4148 3.09664
rfingers 7.12502
rthumb 63.5571 -6.31319
lclavicle -2.96189e-014 2.78299e-014
lhumerus -2.16473 -5.86334 89.8541
lradius 138.289
lwrist -0.900733
lhand 14.7408 34.5201
lfingers 7.12502
lthumb 39.6076 59.8633
rfemur -23.8234 1.15562 20.3299
rtibia 31.0133
rfoot -18.9796 -21.9771
rtoes -16.6036
lfemur -34.3865 -14.4509 -0.745181
ltibia 22.5848
lfoot 5.37234 10.493
ltoes -43.3462
